<?xml version="1.0" encoding="utf-8"?>
<!-- Generator: Adobe Illustrator 21.1.0, SVG Export Plug-In . SVG Version: 6.00 Build 0)  -->
<svg version="1.1"
	 id="Layer_1" text-rendering="geometricPrecision" shape-rendering="geometricPrecision" image-rendering="optimizeQuality"
	 xmlns="http://www.w3.org/2000/svg" xmlns:xlink="http://www.w3.org/1999/xlink" x="0px" y="0px" viewBox="0 0 256.7 32.2"
	 style="enable-background:new 0 0 256.7 32.2;" xml:space="preserve">
<style type="text/css">
	.st0{fill:#37556E;stroke:#FFFFFF;stroke-width:1886.27;}
</style>
<g id="Layer_x0020_1">
	<path class="st0" d="M216.6,31.8c-18.4-1.1-49.3-4.7-111.6-8.8c-36.5-2.4-82.1,2.2-104.6,4.6C77.9,6.5,154.3,2,216.6,31.8z"/>
	<path class="st0" d="M0.3,27.7V4.2c0-2.1,1.7-3.8,3.8-3.8h161c8.9,8.3,14.9,14.9,19,20.6C128.7,3.9,66.4,9.6,0.3,27.7z"/>
	<path class="st0" d="M165.1,0.3h87.4c2.1,0,3.8,1.7,3.8,3.8v24c-8.8,1.8-23,2.8-32.8,3.3c-13.3,0.7-25.7-6.9-39.4-10.6
		C180,15.3,174,8.6,165.1,0.3z"/>
</g>
</svg>
