<?xml version="1.0" encoding="utf-8"?>
<!-- Generator: Adobe Illustrator 21.1.0, SVG Export Plug-In . SVG Version: 6.00 Build 0)  -->
<svg version="1.1"
	 id="Layer_1" image-rendering="optimizeQuality" shape-rendering="geometricPrecision" text-rendering="geometricPrecision"
	 xmlns="http://www.w3.org/2000/svg" xmlns:xlink="http://www.w3.org/1999/xlink" x="0px" y="0px" viewBox="0 0 4600.3 2061.2"
	 style="enable-background:new 0 0 4600.3 2061.2;" xml:space="preserve">
<style type="text/css">
	.st0{fill:#9C0005;stroke:#FFFFFF;stroke-width:2325.0701;}
	.st1{fill:#FFFFFF;}
</style>
<g id="Layer_x0020_1">
	<path class="st0" d="M3525.5,796.9c-18.4-1.1-49.3-4.7-111.6-8.8c-36.5-2.4-82.1,2.2-104.6,4.6
		C3386.8,771.6,3463.2,767.1,3525.5,796.9z"/>
	<path class="st0" d="M3308.9,793v-23.5c0-2.1,1.7-3.8,3.8-3.8h161c8.9,8.3,14.9,14.9,19,20.6C3437.3,769.2,3375,774.9,3308.9,793z"
		/>
	<path class="st0" d="M3473.7,765.7h91.2v27.9c-8.8,1.8-23,2.8-32.8,3.3c-13.3,0.7-25.7-6.9-39.4-10.6
		C3488.6,780.6,3482.6,773.9,3473.7,765.7z"/>
	<path class="st1" d="M3534.6,782.2h20c1,0,1.8-0.8,1.8-1.8V780c0-1-0.8-1.8-1.8-1.8h-8.7c-0.3,0-0.5-0.2-0.5-0.5v0
		c0-0.3,0.2-0.5,0.5-0.5h6.5v-1h-6.5c-0.8,0-1.5,0.7-1.5,1.5v0.1c0,0.8,0.7,1.5,1.5,1.5h8.7c0.5,0,0.9,0.4,0.9,0.8v0.3
		c0,0.5-0.4,0.9-0.9,0.9h-20c-1.1,0-2,0.3-2.8,1H3534.6z"/>
	<path class="st1" d="M3537.7,778.5c0.3,0,0.6,0.3,0.6,0.6s-0.3,0.6-0.6,0.6c-0.3,0-0.6-0.3-0.6-0.6S3537.4,778.5,3537.7,778.5z
		 M3535.7,777.2h5.1c1.1,0,2-0.3,2.8-1h-8.7c-1,0-1.9,0.3-2.6,0.9c-1.4,1.1-2.8,2.6-4.1,3.8c-0.5,0.5-1.2,0.5-1.7,0l-3.5-3.2
		c-0.9-0.8-2.3-0.8-3.2,0l-3.5,3.2c-0.5,0.5-1.2,0.5-1.7,0l-3.5-3.2c-0.9-0.8-2.3-0.8-3.2,0l-3.5,3.2c-0.5,0.5-1.2,0.5-1.7,0
		l-5.1-4.7l-0.8,0.8l5.1,4.7c0.9,0.8,2.3,0.8,3.2,0l3.5-3.2c0.5-0.5,1.2-0.5,1.7,0l3.5,3.2c0.9,0.8,2.3,0.8,3.2,0l3.5-3.2
		c0.5-0.5,1.2-0.5,1.7,0l3.5,3.2c0.9,0.8,2.3,0.8,3.2,0c1.2-1.2,2.4-2.4,3.6-3.5c0.1-0.1,0.1-0.1,0.2-0.2c0.6-0.5,1.3-0.8,2.2-0.8
		H3535.7z"/>
	<path class="st1" d="M3521.3,780.9c0.3,0,0.6,0.3,0.6,0.6c0,0.3-0.3,0.6-0.6,0.6c-0.3,0-0.6-0.3-0.6-0.6
		C3520.7,781.2,3521,780.9,3521.3,780.9z"/>
	<path class="st1" d="M3516.4,787.2v-3h1v2h2v1H3516.4z M3520.4,786.2v-3h1v3H3520.4z M3525.4,786.2v-3h-2v1h3v-1h-2v3H3525.4z
		 M3527.4,787.2v-4h2v1h-2v1h1l0,0h-1v1h2v1H3527.4z M3535.6,785.5l0.3,0.2c-0.1,0.2-0.3,0.4-0.5,0.5c-0.2,0.1-0.4,0.2-0.7,0.2
		c-0.4,0-0.7-0.1-1-0.4c-0.3-0.3-0.4-0.6-0.4-1c0-0.4,0.1-0.7,0.4-1c0.3-0.3,0.6-0.4,1-0.4c0.2,0,0.5,0.1,0.7,0.2
		c0.2,0.1,0.4,0.3,0.5,0.5l-0.3,0.2c-0.1-0.2-0.2-0.3-0.4-0.4c-0.2-0.1-0.3-0.1-0.5-0.1c-0.3,0-0.5,0.1-0.7,0.3
		c-0.2,0.2-0.3,0.5-0.3,0.8c0,0.3,0.1,0.6,0.3,0.8c0.2,0.2,0.4,0.3,0.7,0.3c0.2,0,0.4-0.1,0.5-0.2
		C3535.3,785.9,3535.5,785.7,3535.6,785.5z M3537.4,787.2v-3h1v2h2v1H3537.4z M3541.4,786.2v-3h1v3H3541.4z M3545.4,787.2v-4h1v1h-1
		v1h1l0,0h-1v1h2v1H3545.4z M3549.4,786.2v-3h-0.1l1.1,2.5v-2.5h1v3h-0.3l-2.7-1.8v1.8H3549.4z M3554.4,786.2v-3h-2v1h3v-1h-2v3
		H3554.4z"/>
</g>
</svg>
